<svg xmlns="http://www.w3.org/2000/svg" viewBox="0 0 127 97"><defs><style>.cls-1{fill:#f9f9f9;}.cls-2{fill:#fff;}</style></defs><title>chat</title><g id="Layer_2" data-name="Layer 2"><polygon class="cls-1" points="32 69 84 69 108 97 107.3 69 127 69 127 11 100 11 100 55 44 55 32 69"/><path class="cls-2" d="M140.5,48.5v50H83.7l-1.2,1.4L65.8,119.4l.4-16.8V98.5H46.5v-50h94m4-4H42.5v58H62.2l-.7,28,24-28h59v-58Z" transform="translate(-42.5 -44.5)"/><text x="-42.5" y="-44.5"></text><path class="cls-2" d="M65.9,78a8.4,8.4,0,0,1-4.5,1.2,7.5,7.5,0,0,1-5.7-2.3A8.4,8.4,0,0,1,53.5,71a9.1,9.1,0,0,1,2.4-6.6A8.1,8.1,0,0,1,62.1,62a7.9,7.9,0,0,1,3.8.8v2.7A6.3,6.3,0,0,0,62,64.2,5.4,5.4,0,0,0,57.8,66a7.2,7.2,0,0,0-1.6,4.7,6.5,6.5,0,0,0,1.5,4.6,5.4,5.4,0,0,0,4.1,1.6,6.6,6.6,0,0,0,4.1-1.4Z" transform="translate(-42.5 -44.5)"/><path class="cls-2" d="M83.5,78.8H80.8V69.3c0-3.4-1.2-5.1-3.8-5.1a4.1,4.1,0,0,0-3.2,1.5,5.3,5.3,0,0,0-1.3,3.8v9.3H69.8V54.5h2.7V65.1h0A6,6,0,0,1,77.9,62c3.7,0,5.6,2.2,5.6,6.7Z" transform="translate(-42.5 -44.5)"/><path class="cls-2" d="M100.2,78.8H97.5V76.2h0a6,6,0,0,1-8.9,1.7,4.8,4.8,0,0,1-1.4-3.5c0-3.1,1.8-4.8,5.4-5.3l4.9-.7q0-4.2-3.3-4.2a8.4,8.4,0,0,0-5.4,2V63.5A10.4,10.4,0,0,1,94.4,62c3.8,0,5.8,2,5.8,6.1Zm-2.7-8.3-3.9.5a7.7,7.7,0,0,0-2.8.9,2.7,2.7,0,0,0-.9,2.3,2.8,2.8,0,0,0,.8,2,3.5,3.5,0,0,0,2.3.7,4.4,4.4,0,0,0,3.3-1.3,5.1,5.1,0,0,0,1.2-3.5Z" transform="translate(-42.5 -44.5)"/><path class="cls-2" d="M112.7,78.6a4.3,4.3,0,0,1-2.4.5c-2.9,0-4.3-1.6-4.3-4.8V64.6h-2.9V62.4H106V58.3l2.6-.8v4.9h4.1v2.2h-4.1v9.3a3.5,3.5,0,0,0,.6,2.3,2,2,0,0,0,1.8.7,2.9,2.9,0,0,0,1.7-.5Z" transform="translate(-42.5 -44.5)"/></g></svg>